<svg width="780" height="474" viewBox="0 0 780 474" fill="none" xmlns="http://www.w3.org/2000/svg">
<rect x="569.855" y="165" width="31" height="78" rx="12" transform="rotate(10.3744 569.855 165)" fill="#FF8A8A"/>
<rect x="387.547" width="58.4507" height="136.839" rx="29.2254" transform="rotate(45 387.547 0)" fill="white"/>
<rect x="451.305" width="58.4507" height="136.839" rx="29.2254" transform="rotate(45 451.305 0)" fill="white"/>
<rect x="134" y="58.4141" width="514" height="553.852" rx="135.859" fill="white"/>
<rect x="199.625" y="143.25" width="384.498" height="243.905" rx="64.1706" fill="#CDE1FF"/>
<rect x="199.625" y="143.25" width="384.498" height="243.905" rx="64.1706" fill="#CDE1FF"/>
<rect x="340.902" y="187.805" width="41.5993" height="61.2829" rx="20.7997" fill="black"/>
<rect x="340.902" y="187.805" width="41.5993" height="61.2829" rx="20.7997" fill="black"/>
<rect x="401.98" y="187.805" width="41.8022" height="61.4858" rx="20.9011" fill="black"/>
<rect x="401.98" y="187.805" width="41.8022" height="61.4858" rx="20.9011" fill="black"/>
<path d="M284.487 322.624C284.487 291.042 313.041 267.967 343.907 271.438C377.351 275.199 406.27 275.237 439.704 271.489C470.569 268.03 499.163 291.08 499.163 322.674C499.163 350.438 476.656 372.944 448.893 372.944H334.808C307.016 372.944 284.487 350.415 284.487 322.624Z" fill="black" stroke="#2E5794" stroke-width="9.50232"/>
<mask id="mask0_147_682" style="mask-type:alpha" maskUnits="userSpaceOnUse" x="289" y="275" width="206" height="94">
<path d="M289.34 322.624C289.34 294.2 315.108 273.083 343.365 276.261C377.165 280.062 406.447 280.1 440.244 276.312C468.508 273.143 494.311 294.244 494.311 322.674C494.311 347.758 473.976 368.092 448.893 368.092H334.808C309.696 368.092 289.34 347.735 289.34 322.624Z" fill="black" stroke="#2E5794" stroke-width="0.202924"/>
</mask>
<g mask="url(#mask0_147_682)">
<path d="M289.34 322.624C289.34 294.2 315.108 273.083 343.365 276.261C377.165 280.062 406.447 280.1 440.244 276.312C468.508 273.143 494.311 294.244 494.311 322.674C494.311 347.758 473.976 368.092 448.893 368.092H334.808C309.696 368.092 289.34 347.735 289.34 322.624Z" fill="black" stroke="#2E5794" stroke-width="0.202924"/>
<path d="M391.665 339.414C404.319 339.414 415.771 343.025 424.057 348.858C432.343 354.692 437.455 362.741 437.455 371.62C437.455 380.5 432.343 388.549 424.057 394.382C415.771 400.215 404.319 403.826 391.665 403.826C379.011 403.826 367.559 400.215 359.273 394.382C350.987 388.549 345.875 380.5 345.875 371.62C345.875 362.741 350.987 354.692 359.273 348.858C367.559 343.025 379.011 339.414 391.665 339.414Z" fill="#FFBFBF" stroke="#2E5794" stroke-width="0.202924"/>
<path d="M428.725 307.095C426.821 311.094 421.128 311.094 419.225 307.095L400.322 267.385C398.661 263.894 401.207 259.862 405.073 259.862H442.877C446.743 259.862 449.289 263.894 447.627 267.385L428.725 307.095Z" fill="white" stroke="#2E5794" stroke-width="0.809347"/>
</g>
<path d="M284.487 322.624C284.487 291.042 313.041 267.967 343.907 271.438C377.351 275.199 406.27 275.237 439.704 271.489C470.569 268.03 499.163 291.08 499.163 322.674C499.163 350.438 476.656 372.944 448.893 372.944H334.808C307.016 372.944 284.487 350.415 284.487 322.624Z" fill="black" stroke="#2E5794" stroke-width="9.50232"/>
<mask id="mask1_147_682" style="mask-type:alpha" maskUnits="userSpaceOnUse" x="289" y="275" width="206" height="94">
<path d="M289.34 322.624C289.34 294.2 315.108 273.083 343.365 276.261C377.165 280.062 406.447 280.1 440.244 276.312C468.508 273.143 494.311 294.244 494.311 322.674C494.311 347.758 473.976 368.092 448.893 368.092H334.808C309.696 368.092 289.34 347.735 289.34 322.624Z" fill="black" stroke="#2E5794" stroke-width="0.202924"/>
</mask>
<g mask="url(#mask1_147_682)">
<path d="M289.34 322.624C289.34 294.2 315.108 273.083 343.365 276.261C377.165 280.062 406.447 280.1 440.244 276.312C468.508 273.143 494.311 294.244 494.311 322.674C494.311 347.758 473.976 368.092 448.893 368.092H334.808C309.696 368.092 289.34 347.735 289.34 322.624Z" fill="black" stroke="#2E5794" stroke-width="0.202924"/>
<path d="M391.665 339.414C404.319 339.414 415.771 343.025 424.057 348.858C432.343 354.692 437.455 362.741 437.455 371.62C437.455 380.5 432.343 388.549 424.057 394.382C415.771 400.215 404.319 403.826 391.665 403.826C379.011 403.826 367.559 400.215 359.273 394.382C350.987 388.549 345.875 380.5 345.875 371.62C345.875 362.741 350.987 354.692 359.273 348.858C367.559 343.025 379.011 339.414 391.665 339.414Z" fill="#FFBFBF" stroke="#2E5794" stroke-width="0.202924"/>
<path d="M428.725 307.095C426.821 311.094 421.128 311.094 419.225 307.095L400.322 267.385C398.661 263.894 401.207 259.862 405.073 259.862H442.877C446.743 259.862 449.289 263.894 447.627 267.385L428.725 307.095Z" fill="white" stroke="#2E5794" stroke-width="0.809347"/>
</g>
<path d="M213.551 152.859H566.605" stroke="#2E5794" stroke-width="40.3069" stroke-linecap="round"/>
<path d="M372.354 190.556C372.704 189.611 374.04 189.611 374.39 190.556L378.916 202.788C379.026 203.085 379.26 203.319 379.558 203.429L391.789 207.955C392.734 208.305 392.734 209.642 391.789 209.992L379.558 214.518C379.26 214.628 379.026 214.862 378.916 215.159L374.39 227.391C374.04 228.336 372.704 228.336 372.354 227.391L367.828 215.159C367.718 214.862 367.483 214.628 367.186 214.518L354.955 209.992C354.009 209.642 354.009 208.305 354.955 207.955L367.186 203.429C367.483 203.319 367.718 203.085 367.828 202.788L372.354 190.556Z" fill="white"/>
<path d="M349.023 225.06C349.387 224.152 350.674 224.152 351.038 225.06L353.657 231.593C353.774 231.887 354.014 232.114 354.314 232.216L361.135 234.547C362.115 234.881 362.115 236.267 361.135 236.601L354.314 238.931C354.014 239.033 353.774 239.261 353.657 239.555L351.038 246.087C350.674 246.996 349.387 246.996 349.023 246.087L346.404 239.555C346.286 239.261 346.047 239.033 345.747 238.931L338.926 236.601C337.946 236.267 337.946 234.881 338.926 234.547L345.747 232.216C346.047 232.114 346.286 231.887 346.404 231.593L349.023 225.06Z" fill="white"/>
<path d="M434.233 190.556C434.582 189.611 435.919 189.611 436.269 190.556L440.795 202.788C440.905 203.085 441.139 203.319 441.436 203.429L453.668 207.955C454.613 208.305 454.613 209.642 453.668 209.992L441.436 214.518C441.139 214.628 440.905 214.862 440.795 215.159L436.269 227.391C435.919 228.336 434.582 228.336 434.233 227.391L429.707 215.159C429.597 214.862 429.362 214.628 429.065 214.518L416.833 209.992C415.888 209.642 415.888 208.305 416.833 207.955L429.065 203.429C429.362 203.319 429.597 203.085 429.707 202.788L434.233 190.556Z" fill="white"/>
<path d="M410.902 225.06C411.266 224.152 412.553 224.152 412.917 225.06L415.536 231.593C415.653 231.887 415.893 232.114 416.192 232.216L423.014 234.547C423.994 234.881 423.994 236.267 423.014 236.601L416.192 238.931C415.893 239.033 415.653 239.261 415.536 239.555L412.917 246.087C412.553 246.996 411.266 246.996 410.902 246.087L408.283 239.555C408.165 239.261 407.926 239.033 407.626 238.931L400.804 236.601C399.825 236.267 399.825 234.881 400.804 234.547L407.626 232.216C407.926 232.114 408.165 231.887 408.283 231.593L410.902 225.06Z" fill="white"/>
<path d="M10.4499 626.868C21.0379 572.794 60.3506 507.638 129.847 403.512C131.065 401.688 132.604 400.044 134.352 398.718L148.223 388.201C155.514 382.673 165.982 387.873 165.982 397.022L161.079 467.668L156.845 526.949L149.936 586.898L139.462 639.048C127.874 722.676 88.4537 740.791 48.3333 716.567C18.2384 698.397 3.69455 661.367 10.4499 626.868Z" fill="white"/>
<path d="M768.706 626.868C758.118 572.794 718.806 507.638 649.309 403.512C648.091 401.688 646.552 400.044 644.804 398.718L630.933 388.201C623.643 382.673 613.174 387.873 613.174 397.022L618.077 467.668L622.312 526.949L629.22 586.898L639.695 639.048C651.282 722.676 690.703 740.791 730.823 716.567C760.918 698.397 775.462 661.367 768.706 626.868Z" fill="white"/>
</svg>
