<svg width="1129" height="745" viewBox="0 0 1129 745" fill="none" xmlns="http://www.w3.org/2000/svg">
<rect x="550.551" y="209" width="31" height="78" rx="12" transform="rotate(49.7699 550.551 209)" fill="#DDFF00"/>
<rect x="35.4844" y="220.438" width="31" height="78" rx="12" transform="rotate(-21.2741 35.4844 220.438)" fill="#8AC4FF"/>
<rect y="666.75" width="31" height="78" rx="12" transform="rotate(-5.8627 0 666.75)" fill="#FF8A8A"/>
<rect x="787.809" y="191.164" width="31" height="78" rx="12" transform="rotate(-5.8627 787.809 191.164)" fill="#FF8A8A"/>
<rect width="31" height="78" rx="12" transform="matrix(-0.645859 0.763457 0.763457 0.645859 311.547 21)" fill="#DDFF00"/>
<rect width="31" height="78" rx="12" transform="matrix(-0.931855 -0.36283 -0.36283 0.931855 826.613 32.4375)" fill="#8AC4FF"/>
<rect width="31" height="78" rx="12" transform="matrix(-0.99477 -0.102145 -0.102145 0.99477 74.2891 3.16406)" fill="#FF8A8A"/>
<rect x="1054.75" y="214.078" width="31" height="78" rx="12" transform="rotate(11.4363 1054.75 214.078)" fill="#8AC4FF"/>
<rect x="896.066" y="694.781" width="31" height="78" rx="12" transform="rotate(-99.7652 896.066 694.781)" fill="#DDFF00"/>
<rect x="224.066" y="524.781" width="31" height="78" rx="12" transform="rotate(-99.7652 224.066 524.781)" fill="#DDFF00"/>
<rect x="1128.96" y="560.797" width="31" height="78" rx="12" transform="rotate(169.936 1128.96 560.797)" fill="#FF8A8A"/>
<rect x="1107.15" y="116.797" width="31" height="78" rx="12" transform="rotate(169.936 1107.15 116.797)" fill="#FF8A8A"/>
</svg>
