<svg width="1667" height="1665" viewBox="0 0 1667 1665" fill="none" xmlns="http://www.w3.org/2000/svg">
<path d="M341.95 564.282C398.437 526.932 489.398 505.184 640.513 476.272C643.161 475.765 645.928 475.695 648.596 476.083L669.767 479.163C680.894 480.782 685.366 494.434 677.353 502.322L611.253 558.94L555.683 606.345L497.222 651.983L442.518 687.773C359.285 749.731 309.431 730.825 296.054 674.801C286.019 632.777 305.91 588.112 341.95 564.282Z" fill="white"/>
<path d="M1477.81 920.867C1405.21 957.576 1293.71 965.89 1103.82 970.63C1100.65 970.709 1097.42 970.258 1094.4 969.295L1070.41 961.65C1057.81 957.632 1055.24 940.925 1066.06 933.307L1153.68 880.285L1227.3 835.935L1303.94 794.191L1374.32 763.157C1488.88 704.126 1542.95 742.529 1542.19 817.95C1541.76 861.153 1516.36 901.371 1477.81 920.867Z" fill="white"/>
<rect x="970.988" y="176.051" width="621.744" height="669.95" rx="164.338" transform="rotate(45.4482 970.988 176.051)" fill="white"/>
<rect x="939.297" y="314.863" width="468.91" height="297.451" rx="78.2585" transform="rotate(45.4482 939.297 314.863)" fill="#CDE1FF"/>
<rect x="939.297" y="314.863" width="468.91" height="297.451" rx="78.2585" transform="rotate(45.4482 939.297 314.863)" fill="#CDE1FF"/>
<rect x="1026" y="467.504" width="52.7588" height="77.7227" rx="26.3794" transform="rotate(45.4482 1026 467.504)" fill="black"/>
<rect x="1026" y="467.504" width="52.7588" height="77.7227" rx="26.3794" transform="rotate(45.4482 1026 467.504)" fill="black"/>
<rect x="1036.96" y="485.238" width="29.5964" height="43.2365" rx="14.7982" transform="rotate(45.4482 1036.96 485.238)" fill="white"/>
<rect x="1036.96" y="485.238" width="29.5964" height="43.2365" rx="14.7982" transform="rotate(45.4482 1036.96 485.238)" fill="white"/>
<rect x="1080.35" y="522.707" width="53.0162" height="77.9801" rx="26.5081" transform="rotate(45.4482 1080.35 522.707)" fill="black"/>
<rect x="1080.35" y="522.707" width="53.0162" height="77.9801" rx="26.5081" transform="rotate(45.4482 1080.35 522.707)" fill="black"/>
<rect x="1090.95" y="540.078" width="29.5964" height="43.2365" rx="14.7982" transform="rotate(45.4482 1090.95 540.078)" fill="white"/>
<rect x="1090.95" y="540.078" width="29.5964" height="43.2365" rx="14.7982" transform="rotate(45.4482 1090.95 540.078)" fill="white"/>
<path d="M853.959 536.486C882.502 508.386 928.762 513.661 953.088 544.646C979.446 578.218 1005.14 604.389 1038.28 631.271C1068.87 656.088 1073.48 702.441 1044.92 730.552C1019.83 755.254 979.463 754.938 954.76 729.846L853.253 626.738C828.525 601.62 828.841 561.213 853.959 536.486Z" fill="black" stroke="#2E5794" stroke-width="12.0514"/>
<mask id="mask0_191_147" style="mask-type:alpha" maskUnits="userSpaceOnUse" x="840" y="524" width="218" height="219">
<path d="M858.276 540.872C883.966 515.581 925.977 520.081 948.247 548.447C974.886 582.376 1000.91 608.876 1034.4 636.05C1062.41 658.776 1066.3 700.871 1040.6 726.166C1017.93 748.484 981.464 748.198 959.146 725.528L857.638 622.42C835.296 599.725 835.581 563.215 858.276 540.872Z" fill="black" stroke="#2E5794" stroke-width="0.25736"/>
</mask>
<g mask="url(#mask0_191_147)">
<path d="M858.276 540.872C883.966 515.581 925.977 520.081 948.247 548.447C974.886 582.376 1000.91 608.876 1034.4 636.05C1062.41 658.776 1066.3 700.871 1040.6 726.166C1017.93 748.484 981.464 748.198 959.146 725.528L857.638 622.42C835.296 599.725 835.581 563.215 858.276 540.872Z" fill="black" stroke="#2E5794" stroke-width="0.25736"/>
<path d="M934.15 648.285C945.409 659.722 952.336 673.285 954.436 685.964C956.536 698.642 953.81 710.425 945.785 718.325C937.76 726.226 925.937 728.767 913.292 726.469C900.648 724.17 887.195 717.033 875.936 705.596C864.677 694.159 857.751 680.596 855.65 667.918C853.55 655.239 856.276 643.457 864.301 635.557C872.327 627.656 884.15 625.114 896.794 627.413C909.438 629.711 922.891 636.848 934.15 648.285Z" fill="#FFBFBF" stroke="#2E5794" stroke-width="0.25736"/>
<path d="M996.327 653.027C991.018 654.865 985.953 649.72 987.874 644.441L1006.95 592.025C1008.62 587.417 1014.53 586.131 1017.97 589.626L1051.61 623.792C1055.05 627.286 1053.67 633.173 1049.03 634.777L996.327 653.027Z" fill="white" stroke="#2E5794" stroke-width="1.02646"/>
</g>
<path d="M853.959 536.486C882.502 508.386 928.762 513.661 953.088 544.646C979.446 578.218 1005.14 604.389 1038.28 631.271C1068.87 656.088 1073.48 702.441 1044.92 730.552C1019.83 755.254 979.463 754.938 954.76 729.846L853.253 626.738C828.525 601.62 828.841 561.213 853.959 536.486Z" fill="black" stroke="#2E5794" stroke-width="12.0514"/>
<mask id="mask1_191_147" style="mask-type:alpha" maskUnits="userSpaceOnUse" x="840" y="524" width="218" height="219">
<path d="M858.276 540.872C883.966 515.581 925.977 520.081 948.247 548.447C974.886 582.376 1000.91 608.876 1034.4 636.05C1062.41 658.776 1066.3 700.871 1040.6 726.166C1017.93 748.484 981.464 748.198 959.146 725.528L857.638 622.42C835.296 599.725 835.581 563.215 858.276 540.872Z" fill="black" stroke="#2E5794" stroke-width="0.25736"/>
</mask>
<g mask="url(#mask1_191_147)">
<path d="M858.276 540.872C883.966 515.581 925.977 520.081 948.247 548.447C974.886 582.376 1000.91 608.876 1034.4 636.05C1062.41 658.776 1066.3 700.871 1040.6 726.166C1017.93 748.484 981.464 748.198 959.146 725.528L857.638 622.42C835.296 599.725 835.581 563.215 858.276 540.872Z" fill="black" stroke="#2E5794" stroke-width="0.25736"/>
<path d="M934.15 648.285C945.409 659.722 952.336 673.285 954.436 685.964C956.536 698.642 953.81 710.425 945.785 718.325C937.76 726.226 925.937 728.767 913.292 726.469C900.648 724.17 887.195 717.033 875.936 705.596C864.677 694.159 857.751 680.596 855.65 667.918C853.55 655.239 856.276 643.457 864.301 635.557C872.327 627.656 884.15 625.114 896.794 627.413C909.438 629.711 922.891 636.848 934.15 648.285Z" fill="#FFBFBF" stroke="#2E5794" stroke-width="0.25736"/>
<path d="M996.327 653.027C991.018 654.865 985.953 649.72 987.874 644.441L1006.95 592.025C1008.62 587.417 1014.53 586.131 1017.97 589.626L1051.61 623.792C1055.05 627.286 1053.67 633.173 1049.03 634.777L996.327 653.027Z" fill="white" stroke="#2E5794" stroke-width="1.02646"/>
</g>
<path d="M942.867 335.184L1244.93 642.01" stroke="#2E5794" stroke-width="49.1558" stroke-linecap="round"/>
<rect x="1236.5" y="345.031" width="70.7031" height="165.523" rx="35.3515" transform="rotate(90.4482 1236.5 345.031)" fill="white"/>
<rect x="1290.61" y="399.988" width="70.7031" height="165.523" rx="35.3515" transform="rotate(90.4482 1290.61 399.988)" fill="white"/>
<path d="M341.95 564.282C398.437 526.932 489.398 505.184 640.513 476.272C643.161 475.765 645.928 475.695 648.596 476.083L669.767 479.163C680.894 480.782 685.366 494.434 677.353 502.322L611.253 558.94L555.683 606.345L497.222 651.983L442.518 687.773C359.285 749.731 309.431 730.825 296.054 674.801C286.019 632.777 305.91 588.112 341.95 564.282Z" fill="white"/>
<rect x="970.988" y="176.051" width="621.744" height="669.95" rx="164.338" transform="rotate(45.4482 970.988 176.051)" fill="white"/>
<rect x="939.297" y="314.863" width="468.91" height="297.451" rx="78.2585" transform="rotate(45.4482 939.297 314.863)" fill="#CDE1FF"/>
<rect x="939.297" y="314.863" width="468.91" height="297.451" rx="78.2585" transform="rotate(45.4482 939.297 314.863)" fill="#CDE1FF"/>
<rect x="1026" y="467.504" width="52.7588" height="77.7227" rx="26.3794" transform="rotate(45.4482 1026 467.504)" fill="black"/>
<rect x="1026" y="467.504" width="52.7588" height="77.7227" rx="26.3794" transform="rotate(45.4482 1026 467.504)" fill="black"/>
<rect x="1036.96" y="485.238" width="29.5964" height="43.2365" rx="14.7982" transform="rotate(45.4482 1036.96 485.238)" fill="white"/>
<rect x="1036.96" y="485.238" width="29.5964" height="43.2365" rx="14.7982" transform="rotate(45.4482 1036.96 485.238)" fill="white"/>
<rect x="1080.35" y="522.707" width="53.0162" height="77.9801" rx="26.5081" transform="rotate(45.4482 1080.35 522.707)" fill="black"/>
<rect x="1080.35" y="522.707" width="53.0162" height="77.9801" rx="26.5081" transform="rotate(45.4482 1080.35 522.707)" fill="black"/>
<rect x="1090.95" y="540.078" width="29.5964" height="43.2365" rx="14.7982" transform="rotate(45.4482 1090.95 540.078)" fill="white"/>
<rect x="1090.95" y="540.078" width="29.5964" height="43.2365" rx="14.7982" transform="rotate(45.4482 1090.95 540.078)" fill="white"/>
<path d="M853.959 536.486C882.502 508.386 928.762 513.661 953.088 544.646C979.446 578.218 1005.14 604.389 1038.28 631.271C1068.87 656.088 1073.48 702.441 1044.92 730.552C1019.83 755.254 979.463 754.938 954.76 729.846L853.253 626.738C828.525 601.62 828.841 561.213 853.959 536.486Z" fill="black" stroke="#2E5794" stroke-width="12.0514"/>
<mask id="mask2_191_147" style="mask-type:alpha" maskUnits="userSpaceOnUse" x="840" y="524" width="218" height="219">
<path d="M858.276 540.872C883.966 515.581 925.977 520.081 948.247 548.447C974.886 582.376 1000.91 608.876 1034.4 636.05C1062.41 658.776 1066.3 700.871 1040.6 726.166C1017.93 748.484 981.464 748.198 959.146 725.528L857.638 622.42C835.296 599.725 835.581 563.215 858.276 540.872Z" fill="black" stroke="#2E5794" stroke-width="0.25736"/>
</mask>
<g mask="url(#mask2_191_147)">
<path d="M858.276 540.872C883.966 515.581 925.977 520.081 948.247 548.447C974.886 582.376 1000.91 608.876 1034.4 636.05C1062.41 658.776 1066.3 700.871 1040.6 726.166C1017.93 748.484 981.464 748.198 959.146 725.528L857.638 622.42C835.296 599.725 835.581 563.215 858.276 540.872Z" fill="black" stroke="#2E5794" stroke-width="0.25736"/>
<path d="M934.15 648.285C945.409 659.722 952.336 673.285 954.436 685.964C956.536 698.642 953.81 710.425 945.785 718.325C937.76 726.226 925.937 728.767 913.292 726.469C900.648 724.17 887.195 717.033 875.936 705.596C864.677 694.159 857.751 680.596 855.65 667.918C853.55 655.239 856.276 643.457 864.301 635.557C872.327 627.656 884.15 625.114 896.794 627.413C909.438 629.711 922.891 636.848 934.15 648.285Z" fill="#FFBFBF" stroke="#2E5794" stroke-width="0.25736"/>
<path d="M996.327 653.027C991.018 654.865 985.953 649.72 987.874 644.441L1006.95 592.025C1008.62 587.417 1014.53 586.131 1017.97 589.626L1051.61 623.792C1055.05 627.286 1053.67 633.173 1049.03 634.777L996.327 653.027Z" fill="white" stroke="#2E5794" stroke-width="1.02646"/>
</g>
<path d="M853.959 536.486C882.502 508.386 928.762 513.661 953.088 544.646C979.446 578.218 1005.14 604.389 1038.28 631.271C1068.87 656.088 1073.48 702.441 1044.92 730.552C1019.83 755.254 979.463 754.938 954.76 729.846L853.253 626.738C828.525 601.62 828.841 561.213 853.959 536.486Z" fill="black" stroke="#2E5794" stroke-width="12.0514"/>
<mask id="mask3_191_147" style="mask-type:alpha" maskUnits="userSpaceOnUse" x="840" y="524" width="218" height="219">
<path d="M858.276 540.872C883.966 515.581 925.977 520.081 948.247 548.447C974.886 582.376 1000.91 608.876 1034.4 636.05C1062.41 658.776 1066.3 700.871 1040.6 726.166C1017.93 748.484 981.464 748.198 959.146 725.528L857.638 622.42C835.296 599.725 835.581 563.215 858.276 540.872Z" fill="black" stroke="#2E5794" stroke-width="0.25736"/>
</mask>
<g mask="url(#mask3_191_147)">
<path d="M858.276 540.872C883.966 515.581 925.977 520.081 948.247 548.447C974.886 582.376 1000.91 608.876 1034.4 636.05C1062.41 658.776 1066.3 700.871 1040.6 726.166C1017.93 748.484 981.464 748.198 959.146 725.528L857.638 622.42C835.296 599.725 835.581 563.215 858.276 540.872Z" fill="black" stroke="#2E5794" stroke-width="0.25736"/>
<path d="M934.15 648.285C945.409 659.722 952.336 673.285 954.436 685.964C956.536 698.642 953.81 710.425 945.785 718.325C937.76 726.226 925.937 728.767 913.292 726.469C900.648 724.17 887.195 717.033 875.936 705.596C864.677 694.159 857.751 680.596 855.65 667.918C853.55 655.239 856.276 643.457 864.301 635.557C872.327 627.656 884.15 625.114 896.794 627.413C909.438 629.711 922.891 636.848 934.15 648.285Z" fill="#FFBFBF" stroke="#2E5794" stroke-width="0.25736"/>
<path d="M996.327 653.027C991.018 654.865 985.953 649.72 987.874 644.441L1006.95 592.025C1008.62 587.417 1014.53 586.131 1017.97 589.626L1051.61 623.792C1055.05 627.286 1053.67 633.173 1049.03 634.777L996.327 653.027Z" fill="white" stroke="#2E5794" stroke-width="1.02646"/>
</g>
<path d="M942.867 335.184L1244.93 642.01" stroke="#2E5794" stroke-width="49.1558" stroke-linecap="round"/>
<rect x="1236.5" y="345.031" width="70.7031" height="165.523" rx="35.3515" transform="rotate(90.4482 1236.5 345.031)" fill="white"/>
<rect x="1290.61" y="399.988" width="70.7031" height="165.523" rx="35.3515" transform="rotate(90.4482 1290.61 399.988)" fill="white"/>
<path d="M653.059 787.473C667.697 775.514 689.034 776.669 702.295 790.139L705.536 793.431C719.716 807.835 719.535 831.007 705.131 845.187L354.278 1190.59C339.874 1204.77 316.702 1204.59 302.522 1190.19L267.229 1154.34C252.112 1138.98 253.467 1113.96 270.153 1100.32L653.059 787.473Z" fill="white"/>
<path d="M214.822 1052.7C240.045 1027.87 280.622 1028.19 305.453 1053.41L353.505 1102.22L283.63 1171.01L214.446 1100.73C201.286 1087.37 201.454 1065.86 214.822 1052.7V1052.7Z" fill="white"/>
<path d="M808.909 945.785C821.096 931.336 820.275 909.983 807.014 896.513L803.773 893.221C789.592 878.817 766.421 878.636 752.017 892.816L401.163 1238.22C386.76 1252.4 386.578 1275.57 400.759 1289.98L436.052 1325.83C451.169 1341.18 476.215 1340.22 490.108 1323.75L808.909 945.785Z" fill="white"/>
<path d="M536.865 1379.82C562.088 1354.99 562.405 1314.41 537.574 1289.19L489.522 1240.38L419.647 1309.17L488.83 1379.44C501.991 1392.81 523.497 1392.98 536.865 1379.82V1379.82Z" fill="white"/>
</svg>
