<svg width="4070" height="2577" viewBox="0 0 4070 2577" fill="none" xmlns="http://www.w3.org/2000/svg">
<path d="M48.7982 1908V619.001H1001.38V977.548H485.252V1109.46H929.673V1416.66H485.252V1564.5H1017.32V1908H48.7982ZM1016.43 1908L1427.21 619.001H1923.87L2318.71 1908H1873.41L1682.18 1192.68C1675.69 1168.48 1670.38 1147.53 1666.24 1129.82C1662.7 1111.52 1660.05 1099.13 1658.28 1092.64H1656.51C1654.74 1099.13 1651.49 1111.23 1646.77 1128.93C1642.64 1146.64 1637.91 1167.59 1632.6 1191.79L1458.2 1908H1016.43ZM1295.3 1730.05L1347.54 1441.45H1973.44L2031.87 1730.05H1295.3ZM2208.93 977.548V619.001H3306.71V977.548H2992.43V1908H2525.87V977.548H2208.93ZM3371.34 1908V619.001H3837.89V1908H3371.34Z" fill="#364052"/>
<path d="M1430 354.998C2379.62 375.693 2917.23 378.22 3892 354.998" stroke="#2E5794" stroke-width="355" stroke-linecap="round"/>
</svg>
